<svg id="Layer_2" data-name="Layer 2" xmlns="http://www.w3.org/2000/svg" viewBox="0 0 848.46 309.62"><defs><style>.cls-1{fill:#f2f2f2;}</style></defs><title>logotipo</title><path class="cls-1" d="M650.06,1390H558.28V1261.3h28.88v103.55h62.9V1390Z" transform="translate(-216 -1145)"/><path class="cls-1" d="M754.35,1331.38V1261.3h28.42v70.08q0,28.21-15.27,43.44T724,1390q-28.14,0-43.41-15.23t-15.27-43.44V1261.3H694.2v70.08q0,34.05,29.8,34.05,14.9,0,22.62-8.63T754.35,1331.38Z" transform="translate(-216 -1145)"/><path class="cls-1" d="M838.22,1390H809.81V1261.3h55.92q22.16,0,34.35,11.68t12.19,30.81q0,13.43-6,23.22a36.84,36.84,0,0,1-17.34,14.67L921.82,1390H889.08L859.65,1346H838.22V1390Zm24.19-104.38H838.22v36.42h24.19q9.93,0,15.5-4.51t5.56-13.79q0-9.2-5.56-13.66T862.41,1285.67Z" transform="translate(-216 -1145)"/><path class="cls-1" d="M1033.65,1390l-11-29.06H970.1l-11,29.06H929.17l53-128.75h29.34l53,128.75h-30.81Zm-37.25-98.13-17.84,46.9h35.59Z" transform="translate(-216 -1145)"/><path class="cls-1" d="M585.37,1245.22a13.57,13.57,0,0,1-3.37,1.94,22.19,22.19,0,0,1-4.22,1.25,22.76,22.76,0,0,1-4.35.43,16,16,0,0,1-8-1.93,13.39,13.39,0,0,1-5.27-5.34,17.64,17.64,0,0,1,0-15.8,13.44,13.44,0,0,1,5.28-5.35,16,16,0,0,1,8-1.92,19.19,19.19,0,0,1,11.45,3.81l-2.75,4.51a13.28,13.28,0,0,0-3.88-2,13.75,13.75,0,0,0-4.19-.68,9.38,9.38,0,0,0-4.76,1.19,8.5,8.5,0,0,0-3.25,3.32,10.14,10.14,0,0,0-1.18,5,10.65,10.65,0,0,0,1.16,5.05,8.48,8.48,0,0,0,3.29,3.44,9.77,9.77,0,0,0,5,1.24,12.22,12.22,0,0,0,4.66-.87v-5.26h-6v-5.49h12.42v13.43Z" transform="translate(-216 -1145)"/><path class="cls-1" d="M597.59,1248.15h-6.4v-29h12.58q5,0,7.73,2.63a9.16,9.16,0,0,1,2.74,6.93,9.78,9.78,0,0,1-1.36,5.23,8.29,8.29,0,0,1-3.9,3.3l7.41,10.89H609l-6.62-9.91h-4.82v9.91Zm5.44-23.49h-5.44v8.2H603a5.4,5.4,0,0,0,3.49-1,3.76,3.76,0,0,0,1.25-3.1,3.7,3.7,0,0,0-1.25-3.07A5.44,5.44,0,0,0,603,1224.66Z" transform="translate(-216 -1145)"/><path class="cls-1" d="M641.57,1248.15l-2.48-6.54H627.27l-2.48,6.54h-6.73l11.92-29h6.6l11.92,29h-6.93Zm-8.38-22.09-4,10.56h8Zm8.61-16.54-6.64,6.27h-5.84l5.36-6.27h7.12Z" transform="translate(-216 -1145)"/><path class="cls-1" d="M658.64,1248.15h-6.5v-29H672.8v5.59H658.64v7.51h12.09v5.59H658.64v10.29Z" transform="translate(-216 -1145)"/><path class="cls-1" d="M684.19,1248.15h-6.5v-29h6.5v29Z" transform="translate(-216 -1145)"/><path class="cls-1" d="M712.77,1240.14l2.81,4.62a16.67,16.67,0,0,1-5.2,3,18.61,18.61,0,0,1-6.44,1.1,15.72,15.72,0,0,1-7.93-1.93,13.44,13.44,0,0,1-5.24-5.34,17.69,17.69,0,0,1,0-15.8,13.43,13.43,0,0,1,5.24-5.35,15.72,15.72,0,0,1,7.93-1.92,18.79,18.79,0,0,1,6.12,1,16.8,16.8,0,0,1,5.06,2.73l-2.81,4.62a12.35,12.35,0,0,0-7.6-2.57,9.39,9.39,0,0,0-4.8,1.19,8.26,8.26,0,0,0-3.19,3.32,11.14,11.14,0,0,0,0,9.81,8.26,8.26,0,0,0,3.19,3.32,9.39,9.39,0,0,0,4.8,1.19A12.36,12.36,0,0,0,712.77,1240.14Z" transform="translate(-216 -1145)"/><path class="cls-1" d="M740.53,1248.15l-2.48-6.54H726.22l-2.48,6.54H717l11.92-29h6.6l11.92,29h-6.93Zm-8.38-22.09-4,10.56h8Z" transform="translate(-216 -1145)"/><path class="cls-1" d="M381.67,1175h-5.27V1301.6a12.94,12.94,0,1,1-3.73,0V1175h-5.27a4.32,4.32,0,0,0-4.08,2.89l-51.74,147.38a22.34,22.34,0,0,0,0,16.12l23.81,63a9.45,9.45,0,0,0,8.84,6.11h60.65a9.45,9.45,0,0,0,8.84-6.11l23.81-63a22.34,22.34,0,0,0,0-16.12l-51.74-147.38A4.32,4.32,0,0,0,381.67,1175Z" transform="translate(-216 -1145)"/><path class="cls-1" d="M527.32,1287h-3.14A149.74,149.74,0,0,0,387,1153.81v-2.75c0-3.29-3.4-6.06-6.69-6.06h-11.6a5.84,5.84,0,0,0-5.71,6.06v2.75A150.74,150.74,0,0,0,224.84,1287h-3.22c-3.29,0-5.61,2.88-5.61,6.17v11.6c0,3.29,2.32,6.24,5.61,6.24h2.45a150.61,150.61,0,0,0,300.9,0h2.36c3.29,0,6.68-2.94,6.68-6.24v-11.6C534,1289.88,530.62,1287,527.32,1287Zm-96.13,148.9c-9.28,4-19.19-3-19.19-13.12h0c0-1.69-2.21-2.78-3.9-2.78H340.92a3,3,0,0,0-3.06,2.92,14.15,14.15,0,0,1-19.74,13A143.42,143.42,0,0,1,231.53,1311h1.68c3.29,0,6.79-2.94,6.79-6.24v-11.6c0-3.29-3.5-6.17-6.79-6.17h-0.83c8-67,62.62-119.93,130.62-125.5v1.16c0,3.29,2.42,6.34,5.71,6.34h11.6c3.29,0,6.69-3.05,6.69-6.34v-1.16C455,1167,508.68,1220,516.65,1287h-0.92a6,6,0,0,0-5.73,6.17v11.6c0,3.29,2.43,6.24,5.73,6.24h1.77A143,143,0,0,1,431.19,1435.9Z" transform="translate(-216 -1145)"/></svg>